# xmcd
#
# Track frame offsets: 
#        150
#        20296
#        39749
#        59095
#        70891
#        84375
#        106558
#        128698
#        145836
#        151201
#        171700
#        195570
#        223958
#        244211
#        263053
#
# Disc length: 3547 seconds
#
# Revision: 0
# Processed by: cddbd v1.5.2PL0 Copyright (c) Steve Scherf et al.
# Submitted via: ExactAudioCopy v0.99pb4
#
DISCID=d80dd90f
DTITLE=Geoff Achison - One Ticket, One Ride
DYEAR=2009
DGENRE=Blues
TTITLE0=Sent To The Edge
TTITLE1=My Little Bag
TTITLE2=Magic Belt
TTITLE3=Blew My Top
TTITLE4=A Pocketful Of Spells
TTITLE5=One Ticket, One Ride
TTITLE6=Kinda Makes Sense
TTITLE7=Bootbanger
TTITLE8=Dogwood Days
TTITLE9=Soul To Soul
TTITLE10=Tying My Heart To A Stone
TTITLE11=Bridge
TTITLE12=Give Me Back My Numbers
TTITLE13=Testosta Rhonda
TTITLE14=Bonus Track
EXTD=
EXTT0=
EXTT1=
EXTT2=
EXTT3=
EXTT4=
EXTT5=
EXTT6=
EXTT7=
EXTT8=
EXTT9=
EXTT10=
EXTT11=
EXTT12=
EXTT13=
EXTT14=
PLAYORDER=
